<svg width="24" height="25" viewBox="0 0 24 25" fill="none" xmlns="http://www.w3.org/2000/svg">
<path d="M24 11.4416V22.9979C24 23.5283 23.7893 24.037 23.4142 24.4121C23.0391 24.7872 22.5304 24.9979 22 24.9979H17C16.4696 24.9979 15.9609 24.7872 15.5858 24.4121C15.2107 24.037 15 23.5283 15 22.9979V17.9979C15 17.7327 14.8946 17.4783 14.7071 17.2908C14.5196 17.1032 14.2652 16.9979 14 16.9979H10C9.73478 16.9979 9.48043 17.1032 9.29289 17.2908C9.10536 17.4783 9 17.7327 9 17.9979V22.9979C9 23.5283 8.78929 24.037 8.41421 24.4121C8.03914 24.7872 7.53043 24.9979 7 24.9979H2C1.46957 24.9979 0.960859 24.7872 0.585786 24.4121C0.210714 24.037 2.31098e-08 23.5283 2.31098e-08 22.9979V11.4416C-4.20536e-05 11.1648 0.057374 10.891 0.168614 10.6376C0.279855 10.3841 0.442497 10.1565 0.64625 9.96912L10.6462 0.534124L10.66 0.520374C11.0282 0.185541 11.508 0 12.0056 0C12.5033 0 12.9831 0.185541 13.3512 0.520374C13.3555 0.525265 13.3601 0.529859 13.365 0.534124L23.365 9.96912C23.5667 10.1575 23.7273 10.3855 23.8365 10.6389C23.9458 10.8924 24.0015 11.1657 24 11.4416Z" fill="#001858"/>
</svg>
